<svg width="20" height="20" viewBox="0 0 20 20" fill="none" xmlns="http://www.w3.org/2000/svg">
<g clip-path="url(#clip0_2_10169)">
<path d="M10 18.3333C14.6024 18.3333 18.3333 14.6024 18.3333 10C18.3333 5.39763 14.6024 1.66667 10 1.66667C5.39763 1.66667 1.66667 5.39763 1.66667 10C1.66667 14.6024 5.39763 18.3333 10 18.3333Z" stroke="currentColor" stroke-width="1.5" stroke-linecap="round" stroke-linejoin="round"/>
<path d="M7.57487 7.49967C7.77079 6.94272 8.15749 6.47309 8.6665 6.17394C9.1755 5.8748 9.77395 5.76545 10.3558 5.86526C10.9377 5.96507 11.4655 6.2676 11.8458 6.71927C12.226 7.17094 12.4341 7.7426 12.4332 8.333C12.4332 9.99967 9.9332 10.833 9.9332 10.833" stroke="currentColor" stroke-width="1.5" stroke-linecap="round" stroke-linejoin="round"/>
<path d="M10 14.1667H10.0083" stroke="currentColor" stroke-width="1.5" stroke-linecap="round" stroke-linejoin="round"/>
</g>
<defs>
<clipPath id="clip0_2_10169">
<rect width="20" height="20" fill="currentColor"/>
</clipPath>
</defs>
</svg>
