<svg width="19" height="18" viewBox="0 0 19 18" fill="none" xmlns="http://www.w3.org/2000/svg">
<g clip-path="url(#clip0_25_129937)">
<path d="M11.75 5.25H14C14.4925 5.25 14.9801 5.347 15.4351 5.53545C15.89 5.72391 16.3034 6.00013 16.6517 6.34835C16.9999 6.69657 17.2761 7.10997 17.4645 7.56494C17.653 8.01991 17.75 8.50754 17.75 9C17.75 9.49246 17.653 9.98009 17.4645 10.4351C17.2761 10.89 16.9999 11.3034 16.6517 11.6517C16.3034 11.9999 15.89 12.2761 15.4351 12.4645C14.9801 12.653 14.4925 12.75 14 12.75H11.75M7.25 12.75H5C4.50754 12.75 4.01991 12.653 3.56494 12.4645C3.10997 12.2761 2.69657 11.9999 2.34835 11.6517C1.64509 10.9484 1.25 9.99456 1.25 9C1.25 8.00544 1.64509 7.05161 2.34835 6.34835C3.05161 5.64509 4.00544 5.25 5 5.25H7.25" stroke="currentColor" stroke-width="1.5" stroke-linecap="round" stroke-linejoin="round"/>
<path d="M6.5 9H12.5" stroke="currentColor" stroke-width="1.5" stroke-linecap="round" stroke-linejoin="round"/>
</g>
<defs>
<clipPath id="clip0_25_129937">
<rect width="18" height="18" fill="transparent" transform="translate(0.5)"/>
</clipPath>
</defs>
</svg>
