<?xml version="1.0" encoding="UTF-8"?>
<svg id="_Шар_5" data-name=" Шар 5" xmlns="http://www.w3.org/2000/svg" version="1.1" viewBox="0 0 809.9 668.3">
  <defs>
    <style>
      .cls-1 {
        fill: #eff6ff;
      }

      .cls-1, .cls-2, .cls-3 {
        stroke-width: 0px;
      }

      .cls-2 {
        fill: #0a6cff;
      }

      .cls-3 {
        fill: #317feb;
      }
    </style>
  </defs>
  <path class="cls-2" d="M245.8,0h-125.1v120.6H0v125.3h120.7v120.6h125.1v-120.6h120.7v-125.3h-120.7V0Z"/>
  <path class="cls-2" d="M689.2,0h-125.1v120.6h-120.7v125.3h120.7v120.6h125.1v-120.6h120.7v-125.3h-120.7V0Z"/>
  <rect class="cls-1" x="40.7" y="436.5" width="747.2" height="228.7" rx="37.7" ry="37.7"/>
  <g>
    <path class="cls-3" d="M258.2,606.6v-113.7h12.7v47.8c3-5.2,7.1-9.3,12.3-12.3,5.2-3,10.9-4.5,17.2-4.5,10.6,0,19.5,4,26.6,12,7.1,8,10.6,18.2,10.6,30.5s-3.6,22.5-11,30.5c-7.3,8-16.5,12-27.7,12s-11.9-1.6-16.9-4.7-8.7-7.2-11.2-12v14.5h-12.7ZM277.6,588.7c5.2,5.7,11.7,8.5,19.5,8.5s14.3-2.8,19.6-8.5c5.2-5.7,7.9-13.1,7.9-22.3s-2.6-16.7-7.9-22.3-11.8-8.5-19.6-8.5-14.3,2.8-19.5,8.5c-5.2,5.7-7.8,13.1-7.8,22.3s2.6,16.7,7.8,22.3h0Z"/>
    <path class="cls-3" d="M430.5,568.4h-66.6c.4,8.7,3.1,15.8,8.1,21.4,5,5.6,11.5,8.4,19.6,8.4s12.3-1.6,16.5-4.8c4.2-3.2,7.7-7.7,10.6-13.6l9.3,5.5c-8.1,15.7-20.4,23.5-36.9,23.5s-20.6-4-28.3-12.1c-7.7-8.1-11.6-18.2-11.6-30.5s3.9-22.5,11.7-30.5c7.8-8,17.4-12,28.7-12s21.4,3.7,28.3,11.2,10.5,17.2,10.5,29.1v4.4h0ZM391.7,534.5c-7,0-12.9,2.1-17.5,6.4-4.6,4.3-7.7,10-9.3,17.1h53c-.4-7.2-3.2-12.9-8.4-17.1-5.1-4.3-11.1-6.4-17.8-6.4h0Z"/>
    <path class="cls-3" d="M440.4,536.1v-10.1h13.5v-21.8h12.7v21.8h18.5v10.1h-18.5v48.7c0,4.7.7,8,2.2,10s4.4,3,8.9,3,3.6-.3,6-1l1.1,10.6c-2.4,1-6,1.5-10.7,1.5s-10.7-1.7-14.5-5.1c-3.8-3.4-5.7-8.9-5.7-16.5v-51.2h-13.5Z"/>
    <path class="cls-3" d="M570.3,606.6h-12.7c-3.2-4.1-4.9-9.4-4.9-15.9-2.5,5.8-6.1,10.3-11,13.5-4.8,3.1-10.3,4.7-16.5,4.7s-14.7-2.3-19.6-6.9c-5-4.6-7.5-10.5-7.5-17.6s2.5-13.2,7.6-17.6c5.1-4.4,11.8-7.3,20.1-8.7l26.8-4.4v-3.6c0-10.4-6.3-15.6-19-15.6s-10.8,1.2-14,3.6-5,5.4-5,8.9.1,1.9.3,2.4l-11,3.7c-.9-2.3-1.3-4.4-1.3-6.5,0-6.3,2.8-11.7,8.5-16.2s13.2-6.7,22.5-6.7,18.4,2.3,23.7,6.9c5.3,4.6,8,11.1,8,19.4v36.4c0,4.7.3,8.4,1,11.1.7,2.8,2,5.8,3.9,9h0ZM526.8,597.5c8.1,0,14.5-3.1,19.1-9.2,4.6-6.1,6.9-13.5,6.9-22.2v-2.4l-24.5,4.2c-11.4,2-17,7.2-17,15.8s1.4,7.6,4.1,10.1,6.6,3.7,11.5,3.7h0Z"/>
  </g>
</svg>