<svg width="12" height="13" viewBox="0 0 12 13" fill="none" xmlns="http://www.w3.org/2000/svg">
<g clip-path="url(#clip0_19_6130)">
<path d="M10.5 5.47998C10.5 8.97998 6 11.98 6 11.98C6 11.98 1.5 8.97998 1.5 5.47998C1.5 4.28651 1.97411 3.14191 2.81802 2.298C3.66193 1.45409 4.80653 0.97998 6 0.97998C7.19347 0.97998 8.33807 1.45409 9.18198 2.298C10.0259 3.14191 10.5 4.28651 10.5 5.47998Z" stroke="#A8B1C2" stroke-width="1.5" stroke-linecap="round" stroke-linejoin="round"/>
<path d="M6 6.97998C6.82843 6.97998 7.5 6.30841 7.5 5.47998C7.5 4.65155 6.82843 3.97998 6 3.97998C5.17157 3.97998 4.5 4.65155 4.5 5.47998C4.5 6.30841 5.17157 6.97998 6 6.97998Z" stroke="#A8B1C2" stroke-width="1.5" stroke-linecap="round" stroke-linejoin="round"/>
</g>
<defs>
<clipPath id="clip0_19_6130">
<rect width="12" height="12" fill="white" transform="translate(0 0.47998)"/>
</clipPath>
</defs>
</svg>
