<svg width="28" height="28" viewBox="0 0 28 28" fill="none" xmlns="http://www.w3.org/2000/svg">
<path d="M7.716 18.293L6.009 20V5C6.009 4.447 5.561 4 5.009 4C4.457 4 4.009 4.447 4.009 5V20L2.301 18.292C1.91 17.901 1.278 17.901 0.887 18.292C0.496 18.683 0.496 19.315 0.887 19.706L3.594 22.413C3.984 22.803 4.496 22.998 5.009 22.998C5.522 22.998 6.033 22.803 6.423 22.413L9.13 19.706C9.521 19.315 9.521 18.683 9.13 18.292C8.739 17.901 8.107 17.902 7.716 18.293Z" fill="#A8B1C2"/>
<path d="M27.0078 6C27.0078 6.553 26.5598 7 26.0078 7H13.0078C12.4558 7 12.0078 6.553 12.0078 6C12.0078 5.447 12.4558 5 13.0078 5H26.0078C26.5598 5 27.0078 5.447 27.0078 6ZM23.0078 10H13.0078C12.4558 10 12.0078 10.447 12.0078 11C12.0078 11.553 12.4558 12 13.0078 12H23.0078C23.5598 12 24.0078 11.553 24.0078 11C24.0078 10.447 23.5598 10 23.0078 10ZM20.0078 15H13.0078C12.4558 15 12.0078 15.447 12.0078 16C12.0078 16.553 12.4558 17 13.0078 17H20.0078C20.5598 17 21.0078 16.553 21.0078 16C21.0078 15.447 20.5598 15 20.0078 15ZM17.0078 20H13.0078C12.4558 20 12.0078 20.447 12.0078 21C12.0078 21.553 12.4558 22 13.0078 22H17.0078C17.5598 22 18.0078 21.553 18.0078 21C18.0078 20.447 17.5598 20 17.0078 20Z" fill="#A8B1C2"/>
</svg>
