<svg width="36" height="37" viewBox="0 0 36 37" fill="none" xmlns="http://www.w3.org/2000/svg">
<path d="M10 33.48L12 21.98H24L26 33.48L18 29.48L10 33.48Z" fill="#FFA0A7"/>
<path d="M18 24.48C23.5228 24.48 28 20.0028 28 14.48C28 8.95713 23.5228 4.47998 18 4.47998C12.4772 4.47998 8 8.95713 8 14.48C8 20.0028 12.4772 24.48 18 24.48Z" fill="#0DD4B9"/>
<path d="M18 20.48C21.3137 20.48 24 17.7937 24 14.48C24 11.1663 21.3137 8.47998 18 8.47998C14.6863 8.47998 12 11.1663 12 14.48C12 17.7937 14.6863 20.48 18 20.48Z" fill="#97E5DB"/>
</svg>
