<svg width="36" height="37" viewBox="0 0 36 37" fill="none" xmlns="http://www.w3.org/2000/svg">
<path d="M18 8.48006C16.6867 8.48006 15.3864 8.73872 14.1731 9.24126C12.9599 9.74381 11.8575 10.4804 10.9289 11.409C10.0003 12.3376 9.26375 13.44 8.7612 14.6532C8.25866 15.8665 8 17.1668 8 18.48L18 18.48L18 8.48006Z" fill="#0DD4B9"/>
<path d="M27.9999 18.4799C27.9999 17.1667 27.7413 15.8664 27.2387 14.6531C26.7362 13.4399 25.9996 12.3375 25.071 11.4089C24.1424 10.4803 23.04 9.74373 21.8268 9.24118C20.6135 8.73864 19.3132 8.47998 18 8.47998V18.4799H27.9999Z" fill="#5397FE"/>
<path d="M18 28.4799C19.3133 28.4799 20.6136 28.2212 21.8269 27.7187C23.0401 27.2162 24.1425 26.4796 25.0711 25.551C25.9997 24.6224 26.7363 23.52 27.2388 22.3068C27.7413 21.0935 28 19.7932 28 18.4799L18 18.4799L18 28.4799Z" fill="#FED330"/>
<path d="M8.00008 18.48C8.00008 19.7932 8.25874 21.0936 8.76128 22.3068C9.26383 23.5201 10.0004 24.6225 10.929 25.5511C11.8576 26.4796 12.96 27.2162 14.1732 27.7188C15.3865 28.2213 16.6868 28.48 18 28.48L18 18.48L8.00008 18.48Z" fill="#FFA0A7"/>
</svg>
