<svg width="36" height="36" viewBox="0 0 36 36" fill="none" xmlns="http://www.w3.org/2000/svg">
<g clip-path="url(#clip0_28_6214)">
<path d="M28.1212 15.6983C28.5433 15.6983 28.892 15.3588 28.892 14.9275V10.8809C28.892 10.3946 28.4974 10 28.0111 10H7.98905C7.50272 10 7.10815 10.3946 7.10815 10.8809V14.955C7.10815 15.3771 7.44767 15.7258 7.87894 15.7258C8.98923 15.7258 9.89766 16.6342 9.89766 17.7445C9.89766 18.8548 8.98923 19.7633 7.87894 19.7633C7.45684 19.7633 7.10815 20.1028 7.10815 20.534V24.5715C7.10815 25.0578 7.50272 25.4524 7.98905 25.4524H28.0203C28.5066 25.4524 28.9012 25.0578 28.9012 24.5715V20.5157C28.9012 20.0936 28.5616 19.7449 28.1304 19.7449C27.0201 19.7449 26.1116 18.8365 26.1116 17.7262C26.1116 16.6159 27.0201 15.7075 28.1304 15.7075L28.1212 15.6983Z" fill="#FED330"/>
<path d="M19.6059 15.8634L18.6699 13.9732C18.5965 13.8264 18.4773 13.7071 18.3304 13.6337C17.9634 13.4502 17.5138 13.6061 17.3303 13.9732L16.3943 15.8634L14.3022 16.1662C14.137 16.1938 13.9902 16.2672 13.8709 16.3865C13.5864 16.6801 13.5864 17.1573 13.8801 17.4417L15.3941 18.919L15.0363 21.002C15.0087 21.1672 15.0363 21.3323 15.1097 21.4792C15.3024 21.8462 15.752 21.9838 16.119 21.7911L17.9909 20.8093L19.8628 21.7911C20.0096 21.8645 20.1748 21.8921 20.34 21.8645C20.7529 21.7911 21.019 21.4057 20.9548 21.002L20.5969 18.919L22.1109 17.4417C22.2302 17.3224 22.3036 17.1756 22.3312 17.0104C22.3862 16.5975 22.1018 16.2213 21.698 16.1571L19.6059 15.8543V15.8634Z" fill="#FFED94"/>
</g>
<rect x="22" y="17" width="4" height="12" fill="#9FD984"/>
<rect x="18" y="25" width="4" height="12" transform="rotate(-90 18 25)" fill="#9FD984"/>
<defs>
<clipPath id="clip0_28_6214">
<rect width="22" height="15.4524" fill="white" transform="translate(7 10)"/>
</clipPath>
</defs>
</svg>
