<?xml version="1.0" encoding="UTF-8"?>
<svg id="_Шар_1" data-name="Шар 1" xmlns="http://www.w3.org/2000/svg" width=".84cm" height=".59cm" viewBox="0 0 23.74 16.84">
  <defs>
    <style>
      .cls-1 {
        fill: #ffed94;
      }

      .cls-1, .cls-2 {
        stroke-width: 0px;
      }

      .cls-2 {
        fill: #fed330;
      }
    </style>
  </defs>
  <path class="cls-2" d="M22.9,6.21c.46,0,.84-.37.84-.84V.96c0-.53-.43-.96-.96-.96H.96C.43,0,0,.43,0,.96v4.44c0,.46.37.84.84.84,1.21,0,2.2.99,2.2,2.2s-.99,2.2-2.2,2.2c-.46,0-.84.37-.84.84v4.4c0,.53.43.96.96.96h21.83c.53,0,.96-.43.96-.96v-4.42c0-.46-.37-.84-.84-.84-1.21,0-2.2-.99-2.2-2.2s.99-2.2,2.2-2.2Z"/>
  <path class="cls-1" d="M13.62,6.39l-1.02-2.06c-.08-.16-.21-.29-.37-.37-.4-.2-.89-.03-1.09.37l-1.02,2.06-2.28.33c-.18.03-.34.11-.47.24-.31.32-.31.84.01,1.15l1.65,1.61-.39,2.27c-.03.18,0,.36.08.52.21.4.7.55,1.1.34l2.04-1.07,2.04,1.07c.16.08.34.11.52.08.45-.08.74-.5.67-.94l-.39-2.27,1.65-1.61c.13-.13.21-.29.24-.47.06-.45-.25-.86-.69-.93l-2.28-.33Z"/>
</svg>